<svg xmlns="http://www.w3.org/2000/svg" viewBox="0 0 280 180" width="280" height="180">
  <defs>
    <linearGradient id="bg4" x1="0" y1="0" x2="1" y2="1">
      <stop offset="0%" stop-color="#1a1d24"/>
      <stop offset="100%" stop-color="#16191f"/>
    </linearGradient>
    <linearGradient id="donut" x1="0" y1="0" x2="1" y2="1">
      <stop offset="0%" stop-color="#8b5cf6"/>
      <stop offset="50%" stop-color="#22d3ee"/>
      <stop offset="100%" stop-color="#34d399"/>
    </linearGradient>
  </defs>
  <rect width="280" height="180" rx="10" fill="url(#bg4)"/>
  <rect width="280" height="180" rx="10" fill="none" stroke="rgba(34,211,238,0.25)" stroke-width="1"/>

  <!-- Top bar -->
  <rect x="0" y="0" width="280" height="28" rx="10" fill="#111318"/>
  <rect x="0" y="18" width="280" height="10" fill="#111318"/>
  <circle cx="14" cy="14" r="3.5" fill="#f87171"/>
  <circle cx="25" cy="14" r="3.5" fill="#fbbf24"/>
  <circle cx="36" cy="14" r="3.5" fill="#34d399"/>
  <text x="52" y="18" font-family="monospace" font-size="8" fill="#9ca3af" letter-spacing="1">COPILOT ADOPTION DASHBOARD</text>

  <!-- Active Users Ring -->
  <circle cx="52" cy="85" r="28" fill="none" stroke="#16191f" stroke-width="7"/>
  <!-- Segment 1 - active -->
  <circle cx="52" cy="85" r="28" fill="none" stroke="#8b5cf6" stroke-width="7"
    stroke-dasharray="105.8" stroke-dashoffset="0" stroke-linecap="butt" transform="rotate(-90,52,85)"/>
  <!-- Segment 2 - ready -->
  <circle cx="52" cy="85" r="28" fill="none" stroke="#22d3ee" stroke-width="7"
    stroke-dasharray="45" stroke-dashoffset="-105.8" stroke-linecap="butt" transform="rotate(-90,52,85)"/>
  <!-- Segment 3 - not started -->
  <circle cx="52" cy="85" r="28" fill="none" stroke="#16191f" stroke-width="7"
    stroke-dasharray="24.9" stroke-dashoffset="-150.8" stroke-linecap="butt" transform="rotate(-90,52,85)"/>
  <text x="52" y="81" font-family="Arial,sans-serif" font-size="11" font-weight="900" fill="#f4f4f6" text-anchor="middle">61%</text>
  <text x="52" y="91" font-family="monospace" font-size="5.5" fill="#9ca3af" text-anchor="middle">ADOPTION</text>

  <!-- Legend -->
  <circle cx="92" cy="58" r="3" fill="#8b5cf6"/>
  <text x="98" y="62" font-family="monospace" font-size="5.5" fill="#9ca3af">Active (61%)</text>
  <circle cx="92" cy="71" r="3" fill="#22d3ee"/>
  <text x="98" y="75" font-family="monospace" font-size="5.5" fill="#9ca3af">Ready (25%)</text>
  <circle cx="92" cy="84" r="3" fill="#4b5563"/>
  <text x="98" y="88" font-family="monospace" font-size="5.5" fill="#9ca3af">Not Started (14%)</text>

  <!-- Metric boxes right -->
  <rect x="168" y="36" width="100" height="62" rx="6" fill="#111318" stroke="rgba(255,255,255,0.04)" stroke-width="0.8"/>
  <text x="218" y="48" font-family="monospace" font-size="5.5" fill="#9ca3af" text-anchor="middle">USAGE BY APP</text>

  <text x="176" y="61" font-family="monospace" font-size="5.5" fill="#9ca3af">Teams</text>
  <rect x="202" y="55" width="58" height="6" rx="3" fill="#16191f"/>
  <rect x="202" y="55" width="52" height="6" rx="3" fill="#8b5cf6"/>
  <text x="176" y="73" font-family="monospace" font-size="5.5" fill="#9ca3af">Word</text>
  <rect x="202" y="67" width="58" height="6" rx="3" fill="#16191f"/>
  <rect x="202" y="67" width="42" height="6" rx="3" fill="#22d3ee"/>
  <text x="176" y="85" font-family="monospace" font-size="5.5" fill="#9ca3af">Outlook</text>
  <rect x="202" y="79" width="58" height="6" rx="3" fill="#16191f"/>
  <rect x="202" y="79" width="48" height="6" rx="3" fill="#34d399"/>
  <text x="176" y="97" font-family="monospace" font-size="5.5" fill="#9ca3af">Excel</text>
  <rect x="202" y="91" width="58" height="6" rx="3" fill="#16191f"/>
  <rect x="202" y="91" width="32" height="6" rx="3" fill="#fb923c"/>

  <!-- Weekly trend -->
  <rect x="10" y="113" width="260" height="36" rx="6" fill="#111318" stroke="rgba(255,255,255,0.04)" stroke-width="0.8"/>
  <text x="18" y="124" font-family="monospace" font-size="5.5" fill="#9ca3af">WEEKLY ACTIVE USERS</text>

  <!-- Bar chart -->
  <rect x="18" y="132" width="14" height="10" rx="2" fill="rgba(139,92,246,0.4)"/>
  <rect x="36" y="129" width="14" height="13" rx="2" fill="rgba(139,92,246,0.5)"/>
  <rect x="54" y="126" width="14" height="16" rx="2" fill="rgba(139,92,246,0.6)"/>
  <rect x="72" y="124" width="14" height="18" rx="2" fill="rgba(139,92,246,0.7)"/>
  <rect x="90" y="121" width="14" height="21" rx="2" fill="rgba(139,92,246,0.8)"/>
  <rect x="108" y="119" width="14" height="23" rx="2" fill="#8b5cf6"/>
  <rect x="126" y="117" width="14" height="25" rx="2" fill="#8b5cf6"/>
  <rect x="144" y="115" width="14" height="27" rx="2" fill="#8b5cf6"/>
  <rect x="162" y="116" width="14" height="26" rx="2" fill="#22d3ee"/>
  <rect x="180" y="114" width="14" height="28" rx="2" fill="#22d3ee"/>
  <rect x="198" y="112" width="14" height="30" rx="2" fill="#22d3ee"/>
  <rect x="216" y="110" width="14" height="32" rx="2" fill="#34d399"/>
  <rect x="234" y="109" width="14" height="33" rx="2" fill="#34d399"/>
  <rect x="252" y="107" width="14" height="35" rx="2" fill="#34d399"/>

  <!-- Footer data source tags -->
  <rect x="10" y="155" width="68" height="13" rx="4" fill="rgba(139,92,246,0.12)" stroke="rgba(139,92,246,0.3)" stroke-width="0.6"/>
  <text x="44" y="164" font-family="monospace" font-size="5.5" fill="#8b5cf6" text-anchor="middle">ADMIN CENTRE</text>
  <rect x="84" y="155" width="64" height="13" rx="4" fill="rgba(34,211,238,0.1)" stroke="rgba(34,211,238,0.3)" stroke-width="0.6"/>
  <text x="116" y="164" font-family="monospace" font-size="5.5" fill="#22d3ee" text-anchor="middle">VIVA INSIGHTS</text>
  <rect x="154" y="155" width="62" height="13" rx="4" fill="rgba(52,211,153,0.1)" stroke="rgba(52,211,153,0.3)" stroke-width="0.6"/>
  <text x="185" y="164" font-family="monospace" font-size="5.5" fill="#34d399" text-anchor="middle">USER DETAILS</text>
  <rect x="222" y="155" width="48" height="13" rx="4" fill="rgba(251,146,60,0.1)" stroke="rgba(251,146,60,0.3)" stroke-width="0.6"/>
  <text x="246" y="164" font-family="monospace" font-size="5.5" fill="#fb923c" text-anchor="middle">READINESS</text>
</svg>
